<svg width="449" height="211" viewBox="0 0 449 211" fill="none" xmlns="http://www.w3.org/2000/svg">
<path d="M93.8907 197.638L13.7845 153.964L12.5078 62.6459L91.3373 14.9937L171.452 58.6679L172.729 149.986L93.8907 197.638Z" stroke="#FFD318" stroke-width="3" stroke-miterlimit="10"/>
<path d="M94.5375 209L4.00749 159.01L2 55.514L90.5226 2L181.053 51.9902L183.068 155.494L94.5375 209Z" stroke="#FFD318" stroke-width="3" stroke-miterlimit="10"/>
<path d="M68.7594 139.877H35.5225H26.9466" stroke="white" stroke-width="5" stroke-miterlimit="10"/>
<path d="M61.1998 139.877V72.5951L36.0013 86.8924L35.5225 139.877" stroke="white" stroke-width="5" stroke-miterlimit="10"/>
<path d="M81.3587 141.559V104.655V70.871" stroke="white" stroke-width="5" stroke-miterlimit="10"/>
<path d="M105.868 70.871V141.559" stroke="white" stroke-width="5" stroke-miterlimit="10"/>
<path d="M152.192 141.559V88.9109L128.396 73.4361V141.559" stroke="white" stroke-width="5" stroke-miterlimit="10"/>
<path d="M81.3587 106.219L105.868 106.311" stroke="white" stroke-width="5" stroke-miterlimit="10"/>
<path d="M228.979 79.0884H225.583V72.9277H206.577V79.0884H203.181V69.8203H205.349C206.914 67.2428 208.161 63.8825 209.088 59.7393C210.028 55.584 210.498 51.0373 210.498 46.0991H226.432V69.8203H228.979V79.0884ZM222.855 69.8203V49.2065H213.858C213.689 53.5063 213.159 57.4448 212.268 61.022C211.377 64.5871 210.221 67.5199 208.799 69.8203H222.855ZM254.272 49.1885C255.368 50.3929 256.206 51.8683 256.784 53.6147C257.374 55.3612 257.669 57.3424 257.669 59.5586C257.669 61.7747 257.368 63.762 256.766 65.5205C256.175 67.2669 255.344 68.7243 254.272 69.8926C253.164 71.109 251.852 72.0244 250.334 72.6387C248.828 73.2529 247.106 73.5601 245.167 73.5601C243.276 73.5601 241.554 73.2469 240 72.6206C238.458 71.9943 237.146 71.085 236.062 69.8926C234.978 68.7002 234.14 67.2368 233.55 65.5024C232.972 63.7681 232.683 61.7868 232.683 59.5586C232.683 57.3665 232.972 55.4033 233.55 53.6689C234.128 51.9225 234.972 50.429 236.08 49.1885C237.139 48.0081 238.452 47.1048 240.018 46.4785C241.596 45.8522 243.312 45.5391 245.167 45.5391C247.094 45.5391 248.822 45.8582 250.352 46.4966C251.894 47.1229 253.201 48.0202 254.272 49.1885ZM253.947 59.5586C253.947 56.0658 253.164 53.3739 251.599 51.4829C250.033 49.5799 247.895 48.6284 245.185 48.6284C242.451 48.6284 240.301 49.5799 238.735 51.4829C237.182 53.3739 236.405 56.0658 236.405 59.5586C236.405 63.0876 237.2 65.7915 238.79 67.6704C240.379 69.5373 242.511 70.4707 245.185 70.4707C247.859 70.4707 249.985 69.5373 251.562 67.6704C253.152 65.7915 253.947 63.0876 253.947 59.5586ZM287.298 73H283.721V49.8208L276.241 65.5928H274.109L266.684 49.8208V73H263.342V46.0991H268.22L275.392 61.0762L282.33 46.0991H287.298V73ZM227.191 118H223.614V104.83H210.19V118H206.613V91.0991H210.19V101.65H223.614V91.0991H227.191V118ZM255.646 118H251.833L249.196 110.502H237.561L234.923 118H231.292L241.084 91.0991H245.854L255.646 118ZM248.094 107.431L243.378 94.2246L238.645 107.431H248.094ZM278.915 94.2788H269.304V118H265.727V94.2788H256.115V91.0991H278.915V94.2788ZM301.426 118H297.849V107.305H292.049L284.01 118H279.71L288.346 106.763C286.539 106.148 285.136 105.203 284.136 103.926C283.149 102.638 282.655 100.915 282.655 98.7593C282.655 97.3862 282.938 96.2059 283.504 95.2183C284.082 94.2186 284.841 93.3875 285.78 92.7251C286.635 92.1229 287.635 91.7013 288.779 91.4604C289.924 91.2196 291.188 91.0991 292.573 91.0991H301.426V118ZM297.849 104.324V94.1704H292.393C291.357 94.1704 290.526 94.2367 289.899 94.3691C289.273 94.5016 288.701 94.7425 288.183 95.0918C287.629 95.4652 287.195 95.9891 286.882 96.6636C286.569 97.3381 286.413 98.0788 286.413 98.8857C286.413 99.8493 286.521 100.65 286.738 101.289C286.967 101.927 287.328 102.493 287.822 102.987C288.364 103.517 289.026 103.872 289.809 104.053C290.592 104.233 291.501 104.324 292.537 104.324H297.849ZM340.449 118H336.077L326.61 105.697H324.713V118H321.172V105.697H319.239L309.772 118H305.617L316.331 104.161C315.271 103.463 314.428 102.644 313.801 101.704C313.175 100.765 312.669 99.6626 312.284 98.3979C312.055 97.6632 311.826 97.0369 311.597 96.519C311.38 95.9891 311.103 95.5555 310.766 95.2183C310.441 94.8931 310.025 94.6582 309.52 94.5137C309.026 94.3691 308.417 94.2969 307.695 94.2969H306.611V91.0991H307.894C309.905 91.0991 311.447 91.4845 312.519 92.2554C313.59 93.0142 314.494 94.4354 315.229 96.519C315.361 96.8804 315.518 97.326 315.698 97.856C315.879 98.3859 316.06 98.8677 316.24 99.3013C316.77 100.566 317.463 101.505 318.318 102.12C319.185 102.734 320.137 103.089 321.172 103.186V91.0991H324.713V103.222C325.821 103.149 326.809 102.818 327.676 102.228C328.556 101.626 329.272 100.65 329.826 99.3013C330.043 98.7713 330.236 98.2534 330.404 97.7476C330.585 97.2297 330.729 96.8201 330.838 96.519C331.561 94.4474 332.464 93.0262 333.548 92.2554C334.644 91.4845 336.186 91.0991 338.173 91.0991H339.456V94.2969H338.372C337.577 94.2969 336.95 94.3691 336.493 94.5137C336.047 94.6462 335.644 94.881 335.282 95.2183C334.933 95.5435 334.644 95.9831 334.415 96.5371C334.198 97.0791 333.975 97.6994 333.747 98.3979C333.241 99.9998 332.608 101.21 331.85 102.029C331.103 102.836 330.356 103.475 329.609 103.944L340.449 118ZM365.254 118H361.677V104.83H348.254V118H344.677V91.0991H348.254V101.65H361.677V91.0991H365.254V118ZM388.885 109.744C388.885 108.84 388.735 108.045 388.434 107.359C388.132 106.672 387.663 106.118 387.024 105.697C386.362 105.251 385.597 104.98 384.73 104.884C383.863 104.787 382.64 104.739 381.062 104.739H376.076V114.947H380.972C382.574 114.947 383.803 114.868 384.658 114.712C385.525 114.555 386.284 114.254 386.934 113.809C387.609 113.339 388.102 112.791 388.416 112.165C388.729 111.526 388.885 110.719 388.885 109.744ZM392.625 109.671C392.625 110.972 392.366 112.153 391.848 113.212C391.342 114.272 390.662 115.133 389.807 115.796C388.795 116.591 387.711 117.157 386.555 117.494C385.398 117.831 383.905 118 382.074 118H372.499V91.0991H376.076V101.65H382.183C384.013 101.65 385.507 101.758 386.663 101.975C387.819 102.18 388.909 102.68 389.933 103.475C390.848 104.185 391.523 105.064 391.957 106.112C392.402 107.16 392.625 108.347 392.625 109.671ZM399.328 118H395.75V91.0991H399.328V118ZM427.096 91.0991L417.81 104.396L427.078 118H422.94L415.605 106.925L408.09 118H404.188L413.564 104.559L404.404 91.0991H408.523L415.768 102.029L423.175 91.0991H427.096ZM227.191 163H223.614V139.279H210.19V163H206.613V136.099H227.191V163ZM254.489 139.188C255.585 140.393 256.422 141.868 257 143.615C257.591 145.361 257.886 147.342 257.886 149.559C257.886 151.775 257.585 153.762 256.982 155.521C256.392 157.267 255.561 158.724 254.489 159.893C253.381 161.109 252.068 162.024 250.551 162.639C249.045 163.253 247.323 163.56 245.384 163.56C243.493 163.56 241.771 163.247 240.217 162.621C238.675 161.994 237.362 161.085 236.278 159.893C235.194 158.7 234.357 157.237 233.767 155.502C233.189 153.768 232.9 151.787 232.9 149.559C232.9 147.367 233.189 145.403 233.767 143.669C234.345 141.923 235.188 140.429 236.296 139.188C237.356 138.008 238.669 137.105 240.235 136.479C241.813 135.852 243.529 135.539 245.384 135.539C247.311 135.539 249.039 135.858 250.569 136.497C252.111 137.123 253.417 138.02 254.489 139.188ZM254.164 149.559C254.164 146.066 253.381 143.374 251.815 141.483C250.25 139.58 248.112 138.628 245.402 138.628C242.668 138.628 240.518 139.58 238.952 141.483C237.398 143.374 236.622 146.066 236.622 149.559C236.622 153.088 237.417 155.792 239.006 157.67C240.596 159.537 242.728 160.471 245.402 160.471C248.076 160.471 250.201 159.537 251.779 157.67C253.369 155.792 254.164 153.088 254.164 149.559ZM282.745 139.279H273.134V163H269.557V139.279H259.945V136.099H282.745V139.279ZM306.412 139.188C307.508 140.393 308.345 141.868 308.923 143.615C309.514 145.361 309.809 147.342 309.809 149.559C309.809 151.775 309.507 153.762 308.905 155.521C308.315 157.267 307.484 158.724 306.412 159.893C305.304 161.109 303.991 162.024 302.474 162.639C300.968 163.253 299.246 163.56 297.307 163.56C295.416 163.56 293.693 163.247 292.14 162.621C290.598 161.994 289.285 161.085 288.201 159.893C287.117 158.7 286.28 157.237 285.69 155.502C285.112 153.768 284.823 151.787 284.823 149.559C284.823 147.367 285.112 145.403 285.69 143.669C286.268 141.923 287.111 140.429 288.219 139.188C289.279 138.008 290.592 137.105 292.158 136.479C293.736 135.852 295.452 135.539 297.307 135.539C299.234 135.539 300.962 135.858 302.492 136.497C304.033 137.123 305.34 138.02 306.412 139.188ZM306.087 149.559C306.087 146.066 305.304 143.374 303.738 141.483C302.173 139.58 300.035 138.628 297.325 138.628C294.591 138.628 292.441 139.58 290.875 141.483C289.321 143.374 288.544 146.066 288.544 149.559C288.544 153.088 289.339 155.792 290.929 157.67C292.519 159.537 294.651 160.471 297.325 160.471C299.999 160.471 302.124 159.537 303.702 157.67C305.292 155.792 306.087 153.088 306.087 149.559ZM335.427 163H331.85V139.279H322.13C322.094 140.64 322.04 141.977 321.967 143.29C321.907 144.59 321.859 145.753 321.823 146.776C321.726 149.354 321.564 151.474 321.335 153.136C321.118 154.798 320.835 156.165 320.486 157.237C320.137 158.321 319.739 159.188 319.293 159.838C318.86 160.477 318.36 161.055 317.794 161.573C317.216 162.103 316.62 162.482 316.005 162.711C315.403 162.94 314.693 163.054 313.874 163.054C313.621 163.054 313.313 163.042 312.952 163.018C312.591 163.006 312.338 163 312.193 163V159.531H312.446C312.567 159.543 312.717 159.555 312.898 159.567C313.079 159.579 313.259 159.585 313.44 159.585C313.874 159.585 314.283 159.519 314.668 159.387C315.054 159.254 315.379 159.049 315.644 158.772C316.499 157.917 317.125 156.508 317.523 154.545C317.932 152.582 318.222 149.787 318.39 146.162C318.45 144.982 318.511 143.416 318.571 141.465C318.643 139.514 318.703 137.725 318.751 136.099H335.427V163ZM364.279 163H359.69L348.76 150.733H346.321V163H342.744V136.099H346.321V148.167C346.935 148.155 347.513 148.095 348.055 147.987C348.597 147.878 349.109 147.674 349.591 147.373C350.073 147.096 350.548 146.704 351.018 146.198C351.488 145.68 351.903 145.048 352.265 144.301C352.421 143.976 352.602 143.567 352.807 143.073C353.023 142.579 353.24 142.061 353.457 141.519C354.288 139.52 355.258 138.117 356.366 137.31C357.486 136.503 359.13 136.099 361.298 136.099H362.725V139.297H361.226C360.395 139.297 359.744 139.375 359.274 139.532C358.805 139.676 358.383 139.923 358.01 140.272C357.66 140.586 357.353 141.007 357.088 141.537C356.835 142.067 356.57 142.687 356.293 143.398C355.667 144.988 355.029 146.156 354.378 146.903C353.74 147.65 352.879 148.3 351.795 148.854L364.279 163ZM388.361 139.188C389.457 140.393 390.294 141.868 390.873 143.615C391.463 145.361 391.758 147.342 391.758 149.559C391.758 151.775 391.457 153.762 390.854 155.521C390.264 157.267 389.433 158.724 388.361 159.893C387.253 161.109 385.94 162.024 384.423 162.639C382.917 163.253 381.195 163.56 379.256 163.56C377.365 163.56 375.643 163.247 374.089 162.621C372.547 161.994 371.234 161.085 370.15 159.893C369.066 158.7 368.229 157.237 367.639 155.502C367.061 153.768 366.772 151.787 366.772 149.559C366.772 147.367 367.061 145.403 367.639 143.669C368.217 141.923 369.06 140.429 370.168 139.188C371.228 138.008 372.541 137.105 374.107 136.479C375.685 135.852 377.401 135.539 379.256 135.539C381.183 135.539 382.911 135.858 384.441 136.497C385.983 137.123 387.289 138.02 388.361 139.188ZM388.036 149.559C388.036 146.066 387.253 143.374 385.688 141.483C384.122 139.58 381.984 138.628 379.274 138.628C376.54 138.628 374.39 139.58 372.824 141.483C371.271 143.374 370.494 146.066 370.494 149.559C370.494 153.088 371.289 155.792 372.878 157.67C374.468 159.537 376.6 160.471 379.274 160.471C381.948 160.471 384.074 159.537 385.651 157.67C387.241 155.792 388.036 153.088 388.036 149.559ZM417.719 154.726C417.719 156.062 417.466 157.243 416.96 158.267C416.455 159.29 415.774 160.133 414.919 160.796C413.907 161.591 412.793 162.157 411.577 162.494C410.372 162.831 408.837 163 406.97 163H397.431V136.099H405.398C407.361 136.099 408.831 136.171 409.806 136.316C410.782 136.46 411.715 136.762 412.606 137.219C413.594 137.737 414.311 138.406 414.756 139.225C415.202 140.032 415.425 141.001 415.425 142.133C415.425 143.41 415.1 144.5 414.449 145.403C413.799 146.295 412.932 147.011 411.848 147.553V147.698C413.666 148.071 415.1 148.872 416.147 150.101C417.195 151.317 417.719 152.859 417.719 154.726ZM411.703 142.603C411.703 141.953 411.595 141.405 411.378 140.959C411.161 140.513 410.812 140.152 410.33 139.875C409.764 139.55 409.077 139.351 408.271 139.279C407.464 139.194 406.464 139.152 405.271 139.152H401.008V146.921H405.633C406.753 146.921 407.644 146.867 408.307 146.758C408.969 146.638 409.583 146.397 410.149 146.036C410.715 145.674 411.113 145.211 411.342 144.645C411.583 144.066 411.703 143.386 411.703 142.603ZM413.998 154.87C413.998 153.786 413.835 152.925 413.51 152.287C413.185 151.648 412.594 151.106 411.739 150.661C411.161 150.36 410.457 150.167 409.625 150.083C408.806 149.986 407.807 149.938 406.626 149.938H401.008V159.947H405.741C407.307 159.947 408.59 159.868 409.589 159.712C410.589 159.543 411.408 159.242 412.046 158.809C412.721 158.339 413.215 157.803 413.528 157.201C413.841 156.598 413.998 155.822 413.998 154.87Z" fill="white"/>
</svg>
